<?xml version="1.0" encoding="utf-8"?>
<!-- Generator: Adobe Illustrator 16.0.0, SVG Export Plug-In . SVG Version: 6.00 Build 0)  -->
<!DOCTYPE svg PUBLIC "-//W3C//DTD SVG 1.1//EN" "http://www.w3.org/Graphics/SVG/1.1/DTD/svg11.dtd">
<svg version="1.1" id="Layer_1" xmlns="http://www.w3.org/2000/svg" xmlns:xlink="http://www.w3.org/1999/xlink" x="0px" y="0px"
	 width="841.89px" height="595.28px" viewBox="0 0 841.89 595.28" enable-background="new 0 0 841.89 595.28" xml:space="preserve">
<g>
	<polygon stroke="#000000" stroke-width="5.25" stroke-miterlimit="10" points="307.234,396.174 79.664,396.174 193.449,199.107 	
		"/>
	<polygon stroke="#000000" stroke-width="5.25" stroke-miterlimit="10" points="510.67,199.105 396.893,396.174 283.116,199.105 	
		"/>
	<path stroke="#000000" stroke-width="4.7467" stroke-miterlimit="10" d="M638.838,181.313
		c-68.146,0-123.389,52.082-123.389,116.327c0,64.245,55.242,116.327,123.389,116.327c68.145,0,123.389-52.082,123.389-116.327
		C762.227,233.395,706.982,181.313,638.838,181.313z M709.139,362.658h-17.797V245.195h-0.396l-44.098,117.463H630.83l-44.1-117.463
		h-0.395v117.463h-17.797V221.465h25.707l44.492,118.65l44.693-118.65h25.707V362.658z"/>
</g>
</svg>
